<mxfile host="app.diagrams.net" agent="Mozilla/5.0 (Windows NT 10.0; Win64; x64) AppleWebKit/537.36 (KHTML, like Gecko) Chrome/131.0.0.0 Safari/537.36" version="25.0.3">
  <diagram name="Page-1" id="cohj8z8S4m5TxLio4ceR">
    <mxGraphModel dx="1434" dy="746" grid="1" gridSize="10" guides="1" tooltips="1" connect="1" arrows="1" fold="1" page="1" pageScale="1" pageWidth="827" pageHeight="1169" math="0" shadow="0">
      <root>
        <mxCell id="0" />
        <mxCell id="1" parent="0" />
        <mxCell id="AAG1v3WY4wcVgF360aav-14" style="edgeStyle=orthogonalEdgeStyle;rounded=0;orthogonalLoop=1;jettySize=auto;html=1;exitX=1;exitY=0.5;exitDx=0;exitDy=0;entryX=0;entryY=0.5;entryDx=0;entryDy=0;startArrow=classic;startFill=1;" parent="1" source="AAG1v3WY4wcVgF360aav-1" target="AAG1v3WY4wcVgF360aav-3" edge="1">
          <mxGeometry relative="1" as="geometry" />
        </mxCell>
        <mxCell id="AAG1v3WY4wcVgF360aav-16" value="Flusso 1" style="edgeLabel;html=1;align=center;verticalAlign=middle;resizable=0;points=[];" parent="AAG1v3WY4wcVgF360aav-14" vertex="1" connectable="0">
          <mxGeometry x="-0.1833" relative="1" as="geometry">
            <mxPoint as="offset" />
          </mxGeometry>
        </mxCell>
        <mxCell id="AAG1v3WY4wcVgF360aav-15" style="edgeStyle=orthogonalEdgeStyle;rounded=0;orthogonalLoop=1;jettySize=auto;html=1;exitX=0.5;exitY=1;exitDx=0;exitDy=0;entryX=0;entryY=0.5;entryDx=0;entryDy=0;startArrow=classic;startFill=1;" parent="1" source="AAG1v3WY4wcVgF360aav-1" target="AAG1v3WY4wcVgF360aav-5" edge="1">
          <mxGeometry relative="1" as="geometry" />
        </mxCell>
        <mxCell id="AAG1v3WY4wcVgF360aav-18" value="Flusso 3" style="edgeLabel;html=1;align=center;verticalAlign=middle;resizable=0;points=[];" parent="AAG1v3WY4wcVgF360aav-15" vertex="1" connectable="0">
          <mxGeometry x="0.1813" y="2" relative="1" as="geometry">
            <mxPoint as="offset" />
          </mxGeometry>
        </mxCell>
        <mxCell id="AAG1v3WY4wcVgF360aav-1" value="&lt;b&gt;&lt;font style=&quot;font-size: 14px;&quot;&gt;Amazon S3&lt;/font&gt;&lt;/b&gt;" style="rounded=0;whiteSpace=wrap;html=1;fillColor=#e1d5e7;strokeColor=#9673a6;" parent="1" vertex="1">
          <mxGeometry x="80" y="120" width="160" height="80" as="geometry" />
        </mxCell>
        <mxCell id="AAG1v3WY4wcVgF360aav-13" style="edgeStyle=orthogonalEdgeStyle;rounded=0;orthogonalLoop=1;jettySize=auto;html=1;exitX=0.5;exitY=1;exitDx=0;exitDy=0;entryX=0.5;entryY=0;entryDx=0;entryDy=0;startArrow=classic;startFill=1;" parent="1" source="AAG1v3WY4wcVgF360aav-3" target="AAG1v3WY4wcVgF360aav-5" edge="1">
          <mxGeometry relative="1" as="geometry" />
        </mxCell>
        <mxCell id="AAG1v3WY4wcVgF360aav-17" value="Flusso 2" style="edgeLabel;html=1;align=center;verticalAlign=middle;resizable=0;points=[];" parent="AAG1v3WY4wcVgF360aav-13" vertex="1" connectable="0">
          <mxGeometry x="-0.05" y="1" relative="1" as="geometry">
            <mxPoint as="offset" />
          </mxGeometry>
        </mxCell>
        <mxCell id="AAG1v3WY4wcVgF360aav-3" value="&lt;b&gt;&lt;font style=&quot;font-size: 14px;&quot;&gt;Salesforce&lt;/font&gt;&lt;/b&gt;" style="rounded=0;whiteSpace=wrap;html=1;fillColor=#dae8fc;strokeColor=#6c8ebf;" parent="1" vertex="1">
          <mxGeometry x="360" y="120" width="160" height="80" as="geometry" />
        </mxCell>
        <mxCell id="AAG1v3WY4wcVgF360aav-5" value="&lt;b&gt;&lt;font style=&quot;font-size: 14px;&quot;&gt;AI Engine&lt;/font&gt;&lt;/b&gt;" style="rounded=0;whiteSpace=wrap;html=1;fillColor=#ffe6cc;strokeColor=#d79b00;" parent="1" vertex="1">
          <mxGeometry x="360" y="280" width="160" height="80" as="geometry" />
        </mxCell>
        <mxCell id="AAG1v3WY4wcVgF360aav-21" value="&lt;b&gt;&lt;font style=&quot;font-size: 14px;&quot;&gt;Documentale&lt;/font&gt;&lt;/b&gt;&lt;div&gt;Sistema utlizzato per caricare i file ricevuti nella varie fasi (iniziale, acconti, saldi). Gli altri sistemi ci si integrano per lavorare i documenti archiviati&lt;/div&gt;" style="text;html=1;align=left;verticalAlign=middle;whiteSpace=wrap;rounded=0;" parent="1" vertex="1">
          <mxGeometry x="80" y="30" width="220" height="80" as="geometry" />
        </mxCell>
        <mxCell id="AAG1v3WY4wcVgF360aav-22" value="&lt;div&gt;&lt;span style=&quot;font-size: 14px;&quot;&gt;&lt;b&gt;Gestionale&lt;/b&gt;&lt;/span&gt;&lt;/div&gt;&lt;div&gt;Salesforce è il sistema in carico per l&#39;inserimento dei fornitori e delle istanze, nonchè utilizzato per gestire tutto il flusso di lavoro e generare i documenti necessari&lt;/div&gt;" style="text;html=1;align=left;verticalAlign=middle;whiteSpace=wrap;rounded=0;" parent="1" vertex="1">
          <mxGeometry x="360" y="30" width="230" height="80" as="geometry" />
        </mxCell>
        <mxCell id="AAG1v3WY4wcVgF360aav-23" value="&lt;div&gt;&lt;span style=&quot;font-size: 14px;&quot;&gt;&lt;b&gt;Intelligenza Artificiale&lt;/b&gt;&lt;/span&gt;&lt;/div&gt;&lt;div&gt;Sistema in carico di elaborare i documenti ricevuti in input (le fasi acconti e saldi sono gestite a mano) e fornire a Salesforce gli esiti su ricevibilità, ammissibilità e gestione delle checklist&lt;/div&gt;&lt;div&gt;&lt;br&gt;&lt;/div&gt;&lt;div&gt;OpenSearch - DB vettoriale&lt;/div&gt;&lt;div&gt;BedRock - LLM&lt;/div&gt;&lt;div&gt;Lamdba Fuction - Gestisce le domande verso LLM, ricevi l&#39;output e lo manda a SF&lt;/div&gt;" style="text;html=1;align=left;verticalAlign=middle;whiteSpace=wrap;rounded=0;" parent="1" vertex="1">
          <mxGeometry x="540" y="280" width="230" height="160" as="geometry" />
        </mxCell>
        <mxCell id="AAG1v3WY4wcVgF360aav-29" value="Flussi" style="shape=table;startSize=30;container=1;collapsible=0;childLayout=tableLayout;fixedRows=1;rowLines=0;fontStyle=1;strokeColor=#666666;fontSize=16;fillColor=#f5f5f5;fontColor=#333333;" parent="1" vertex="1">
          <mxGeometry x="80" y="440" width="440" height="210" as="geometry" />
        </mxCell>
        <mxCell id="AAG1v3WY4wcVgF360aav-30" value="" style="shape=tableRow;horizontal=0;startSize=0;swimlaneHead=0;swimlaneBody=0;top=0;left=0;bottom=0;right=0;collapsible=0;dropTarget=0;fillColor=none;points=[[0,0.5],[1,0.5]];portConstraint=eastwest;strokeColor=inherit;fontSize=16;" parent="AAG1v3WY4wcVgF360aav-29" vertex="1">
          <mxGeometry y="30" width="440" height="60" as="geometry" />
        </mxCell>
        <mxCell id="AAG1v3WY4wcVgF360aav-31" value="&lt;font style=&quot;font-size: 14px;&quot;&gt;1&lt;/font&gt;" style="shape=partialRectangle;html=1;whiteSpace=wrap;connectable=0;fillColor=none;top=0;left=0;bottom=0;right=0;overflow=hidden;pointerEvents=1;strokeColor=inherit;fontSize=16;" parent="AAG1v3WY4wcVgF360aav-30" vertex="1">
          <mxGeometry width="40" height="60" as="geometry">
            <mxRectangle width="40" height="60" as="alternateBounds" />
          </mxGeometry>
        </mxCell>
        <mxCell id="AAG1v3WY4wcVgF360aav-32" value="&lt;span style=&quot;font-size: 14px;&quot;&gt;Import dei dati dal file excel con le istanze verso Salesforce per caricamento fornitori e istanze.&lt;/span&gt;" style="shape=partialRectangle;html=1;whiteSpace=wrap;connectable=0;fillColor=none;top=0;left=0;bottom=0;right=0;align=left;spacingLeft=6;overflow=hidden;strokeColor=inherit;fontSize=16;" parent="AAG1v3WY4wcVgF360aav-30" vertex="1">
          <mxGeometry x="40" width="400" height="60" as="geometry">
            <mxRectangle width="400" height="60" as="alternateBounds" />
          </mxGeometry>
        </mxCell>
        <mxCell id="AAG1v3WY4wcVgF360aav-33" value="" style="shape=tableRow;horizontal=0;startSize=0;swimlaneHead=0;swimlaneBody=0;top=0;left=0;bottom=0;right=0;collapsible=0;dropTarget=0;fillColor=none;points=[[0,0.5],[1,0.5]];portConstraint=eastwest;strokeColor=inherit;fontSize=16;" parent="AAG1v3WY4wcVgF360aav-29" vertex="1">
          <mxGeometry y="90" width="440" height="60" as="geometry" />
        </mxCell>
        <mxCell id="AAG1v3WY4wcVgF360aav-34" value="&lt;font style=&quot;font-size: 14px;&quot;&gt;2&lt;/font&gt;" style="shape=partialRectangle;html=1;whiteSpace=wrap;connectable=0;fillColor=none;top=0;left=0;bottom=0;right=0;overflow=hidden;strokeColor=inherit;fontSize=16;" parent="AAG1v3WY4wcVgF360aav-33" vertex="1">
          <mxGeometry width="40" height="60" as="geometry">
            <mxRectangle width="40" height="60" as="alternateBounds" />
          </mxGeometry>
        </mxCell>
        <mxCell id="AAG1v3WY4wcVgF360aav-35" value="&lt;font style=&quot;font-size: 14px;&quot;&gt;Invio richieste da Salesforce verso AI Engine per elaborazione documenti della istanza X. Ritorno esiti da AI Engine verso Salesforce&lt;/font&gt;" style="shape=partialRectangle;html=1;whiteSpace=wrap;connectable=0;fillColor=none;top=0;left=0;bottom=0;right=0;align=left;spacingLeft=6;overflow=hidden;strokeColor=inherit;fontSize=16;" parent="AAG1v3WY4wcVgF360aav-33" vertex="1">
          <mxGeometry x="40" width="400" height="60" as="geometry">
            <mxRectangle width="400" height="60" as="alternateBounds" />
          </mxGeometry>
        </mxCell>
        <mxCell id="AAG1v3WY4wcVgF360aav-36" value="" style="shape=tableRow;horizontal=0;startSize=0;swimlaneHead=0;swimlaneBody=0;top=0;left=0;bottom=0;right=0;collapsible=0;dropTarget=0;fillColor=none;points=[[0,0.5],[1,0.5]];portConstraint=eastwest;strokeColor=inherit;fontSize=16;" parent="AAG1v3WY4wcVgF360aav-29" vertex="1">
          <mxGeometry y="150" width="440" height="60" as="geometry" />
        </mxCell>
        <mxCell id="AAG1v3WY4wcVgF360aav-37" value="&lt;font style=&quot;font-size: 14px;&quot;&gt;3&lt;/font&gt;" style="shape=partialRectangle;html=1;whiteSpace=wrap;connectable=0;fillColor=none;top=0;left=0;bottom=0;right=0;overflow=hidden;strokeColor=inherit;fontSize=16;" parent="AAG1v3WY4wcVgF360aav-36" vertex="1">
          <mxGeometry width="40" height="60" as="geometry">
            <mxRectangle width="40" height="60" as="alternateBounds" />
          </mxGeometry>
        </mxCell>
        <mxCell id="AAG1v3WY4wcVgF360aav-38" value="&lt;font style=&quot;font-size: 14px;&quot;&gt;Recupero dei documenti necessari alla lavorazione della istanza X.&lt;/font&gt;" style="shape=partialRectangle;html=1;whiteSpace=wrap;connectable=0;fillColor=none;top=0;left=0;bottom=0;right=0;align=left;spacingLeft=6;overflow=hidden;strokeColor=inherit;fontSize=16;" parent="AAG1v3WY4wcVgF360aav-36" vertex="1">
          <mxGeometry x="40" width="400" height="60" as="geometry">
            <mxRectangle width="400" height="60" as="alternateBounds" />
          </mxGeometry>
        </mxCell>
      </root>
    </mxGraphModel>
  </diagram>
</mxfile>
